<svg xmlns="http://www.w3.org/2000/svg" viewBox="0 0 784.96 284.13"><defs><style>.cls-1{fill:#1d5a7a;}</style></defs><g id="Layer_2" data-name="Layer 2"><g id="Layer_1-2" data-name="Layer 1"><path class="cls-1" d="M83.23,249.19c-2.86-1.51-6.11-.95-9.11-1.71-3.2-.83-6.59-.13-9.7-.85s-6.45-.54-9.66-.9c-1.36-.15-1.23-.76-.72-1.46,1.08-1.49,2.31-2.84,4.42-2.7,2.44.16,4.88-.28,7.32.73,2,.83,4.3,0,6.47.06,6.14.12,12.22,1,18.27,1.67a193.47,193.47,0,0,1,29.34,5.62c8.11,2.23,16.22,4.49,23.77,8.23,8.31,4.13,16.33,8.68,22.66,15.73,1.55,1.73,2.9,4,5.61,4.54-.58-4.32-3-7.61-5.5-10.73a74.8,74.8,0,0,0-5.67-6.73c-9-9-19.92-14.63-31.93-18.32A104.72,104.72,0,0,0,113,239a152.65,152.65,0,0,0-17.2-1.44c-10.59-.34-21.17.35-31.75,0-1.14,0-2.39.27-3.44-.82a71.89,71.89,0,0,1,11.84-6.42c3.41-1.61,6.72-3.46,10-5.34,3.45-2,6.74-3,10.51-1.7s7.59,1.15,11.32,1.26c8.45.23,16.91.27,25.32,1s16.53,2.13,23.1,8a23.32,23.32,0,0,1,5.89,9.26c2.1,5.43,4.45,10.77,6.84,16.08a5.61,5.61,0,0,0,2.79,2.65c-.29-5-2.37-9.38-3.77-13.93-1.91-6.19-5-12.15-4.73-18.83a38.79,38.79,0,0,1,3.71-14.45c2.7-6,6.05-11.64,10.76-16.2a92.19,92.19,0,0,1,20.2-14.89,78.11,78.11,0,0,1,11-5.21,27.79,27.79,0,0,1,8.58-1.71c9.83-.21,19.67-.08,29.5-.11a3.44,3.44,0,0,1,2.35.69,30.88,30.88,0,0,1-9.07,2.78c-11.26,2.24-21.34,7-31,13.13-10.24,6.5-19.07,14.47-25.74,24.58a60.53,60.53,0,0,0-8.74,22.42,82.45,82.45,0,0,0-.63,23.09,48.15,48.15,0,0,0,2.19,11.4c.41,1.16,1.57,1.46,1.77,2.65,1-.7.69-1.57.8-2.32l.18-.4.19.4c.25,5-1.65,7.67-6.31,9.26-.93.32-1.24.36-1.44-.64a3.94,3.94,0,0,0-2.07-2.53c-6.83-4-13.74-7.8-20.82-11.36-7.9-4-16.27-6.59-24.58-9.4a72.23,72.23,0,0,0-10-2.25c-6-1.14-11.93-2.57-18-3.1-5.67-.51-11.3-1.53-17-1.42-7.18.14-14.35,0-21.65-.26,2-.58,3.65-1.12,2-3.62,10.5.74,20.74,2,31.06,1.77a2.25,2.25,0,0,0,1.37.38c3-.63,5.93.05,8.87.52a72.61,72.61,0,0,1,10.84,2.12,39.33,39.33,0,0,0,7.16,1.51A37.92,37.92,0,0,1,121.1,257c5.31,1.55,10.7,2.88,15.84,5,7.55,3.14,15.19,6.07,20.53,10.34-2.91-1.84-6.89-4.76-11.46-6.6-6.39-2.57-12.64-5.57-19.33-7.26-4.51-1.14-8.92-2.78-13.61-3.14a8.45,8.45,0,0,1-1.57-.59c-3.58-.76-7.16-1.56-10.75-2.28a4.65,4.65,0,0,0-.91-.22c-4.3-.06-8.28-1.59-12.39-2.55C86.08,249.38,84.59,249.78,83.23,249.19Z"/><path class="cls-1" d="M186.45,219.85c15-21.8,36.87-31.91,62-36.66-23.52,7.17-45.47,16.92-61,37.16-.2.34-.49.65-.88.43S186.14,220.19,186.45,219.85Z"/><path class="cls-1" d="M118.68,11.17c.5-3.28-1-4.6-3.44-5.61a39,39,0,0,0-14.75-2.87c-4.13-.06-8.31-.34-12.39.35C83.26,3.85,78.32,4.57,74,7.37A25.52,25.52,0,0,1,84.41,1.9,58.48,58.48,0,0,1,103.58.15c5,.34,10,.87,14.39,3.46C121.5,5.67,121.73,7.32,118.68,11.17Z"/><path class="cls-1" d="M117.91,11.35c-1.08,2.4-3,2.73-4.69,3.1-8.84,1.93-17.53,4.47-26.53,5.69-4.38.6-8.63,2.05-13.11,2-2.43,0-2.86-.69-2-3.05A7.85,7.85,0,0,1,74,15.59c-.38,3.72-.38,3.72,3.62,3.73,7,0,13.67-2,20.44-3.27a113.55,113.55,0,0,0,12.06-2.72C112.53,12.57,115.05,12.06,117.91,11.35Z"/><path class="cls-1" d="M100.31,8.4c-1,2.33-3.15,2.11-4.76,2.21-6.79.42-13.53.91-20,4.05C77.47,11,91.54,7.53,100.31,8.4Z"/><path class="cls-1" d="M108.1,255c-2.52-1.47-5.49-1.24-8.17-1.63-3.38-.5-6.77-1.64-10.29-1.28a2.4,2.4,0,0,1-2.53-.95l3.17-.18c-2.32-1.18-5-.1-7-1.75,5.54-.06,10.87,1.43,16.27,2.31a88.72,88.72,0,0,1,12.64,2.83C111,256,109.46,254.87,108.1,255Z"/><path class="cls-1" d="M186.45,219.85c.07.62.4.75.94.5l-5.6,9.23-.39.15.11-.41C182.38,225.76,184.59,222.9,186.45,219.85Z"/><path class="cls-1" d="M181.79,229.58q-1.78,4.35-3.59,8.7l-.57-.24c1.48-2.83,1.84-6.11,3.88-8.72Z"/><path class="cls-1" d="M175.84,274.67h-.37c-.79-1.87-1.49-3.75-.22-5.87Z"/><path class="cls-1" d="M174.7,254.39c0-1.65-.81-3.44,1.2-5.26C175.32,251.24,176,253,174.7,254.39Z"/><path class="cls-1" d="M174.67,259.43a8.36,8.36,0,0,1,0,3.55C173.26,262.05,173.21,261.26,174.67,259.43Z"/><path class="cls-1" d="M175.76,248c-.72-1.75-.3-3.31.86-5C177.64,245.1,175.52,246.33,175.76,248Z"/><path class="cls-1" d="M207,87.84c1.5-5.14,2.94-10.27,2.91-15.72a39.74,39.74,0,0,0-5.16-19.23c-.26-.46-.78-.85-.57-1.5,2.72,2.29,3.5,5.7,4.5,8.78a35,35,0,0,1,2.05,13.77,54.29,54.29,0,0,1-3,13.34C207.67,87.52,207.28,87.65,207,87.84Z"/><path class="cls-1" d="M108.1,255c1.33-.34,2.83.41,4-.65,2.51.71,5.16.53,7.66,1.43,4.78,1.71,9.73,2.85,14.54,4.49,4.53,1.55,8.9,3.5,13.31,5.3,4.59,1.87,8.56,5,12.53,8.05a.93.93,0,0,1,.23,1.19c-4.1-2.42-8-5.14-12.28-7.15a128.42,128.42,0,0,0-16.87-6.8c-3.26-1-6.44-2.6-9.77-3C116.92,257.23,112.68,255.34,108.1,255Z"/><path class="cls-1" d="M145.8,32.3a.36.36,0,0,1-.07-.1A.36.36,0,0,0,145.8,32.3Z"/><path class="cls-1" d="M210.92,56.12a56.09,56.09,0,0,0-6.81-11.55,35.74,35.74,0,0,0-9.39-8.8c-8.8-5.69-18.39-8.72-29.19-7.22a64.44,64.44,0,0,0-9.5,2c-1.46.43-3,.77-4.43-.06a46.33,46.33,0,0,0-4.74-2.21,78.72,78.72,0,0,0-25.76-7c-10.5-.9-21.1-1-31.55,1.73a99.83,99.83,0,0,0-19.63,6.81A85.06,85.06,0,0,0,52.33,41.07a3.1,3.1,0,0,1-2.67.73,41,41,0,0,0-10.84-.25,36.79,36.79,0,0,0-11,2.79,44.75,44.75,0,0,0-13.09,8.22,43.26,43.26,0,0,0-13,20.94,44,44,0,0,0,.7,26.07,45.65,45.65,0,0,0,12.24,18.77,6.43,6.43,0,0,1,2.31,4.93,39.63,39.63,0,0,0,.86,7.51,124.53,124.53,0,0,0,3.81,14.42A91.49,91.49,0,0,0,37.65,174a102,102,0,0,0,15.27,15,91.81,91.81,0,0,0,20.32,12,84.71,84.71,0,0,0,20,6c5.5.94,11,1.19,16.51,1.89,2.35.15,4.61-.54,6.89-.61a68.06,68.06,0,0,0,12.93-1.72,93.76,93.76,0,0,0,67.58-58.45,87.59,87.59,0,0,0,4.16-14.1c.88-4.36,2-8.73,1.52-13.26a3.32,3.32,0,0,1,.28-1.36c1.09-3.37.73-6.75.18-10.17-.49-3.09-1.79-6.27,1-9.14a30.19,30.19,0,0,0,3.73-5.2,44.89,44.89,0,0,0,6.18-19A40.07,40.07,0,0,0,210.92,56.12ZM58.52,41a115.51,115.51,0,0,1,21-10.85,88.08,88.08,0,0,1,40.68-5,94.8,94.8,0,0,1,24.52,6.33,5.23,5.23,0,0,1,1,.67c1,.08,2.2-.45,2.58.9.2.73-.44,1.09-1.19,1.05-4.93,2.49-8.59,6.41-12.07,10.57-4.06,4.85-6.2,10.69-8.28,16.51a21.17,21.17,0,0,0-.87,5.06c-.15,1.69-1.08,2.09-2.43,1.32-7.9-4.45-16.43-4.94-25.06-3.47a22.45,22.45,0,0,0-9.55,4.1c-2.68,2-3,2-4.28-1A43.87,43.87,0,0,0,65.34,46.18c-2.1-1.18-4.46-1.91-6.67-2.91-.47-.21-1.34-.31-1.27-.89A2.39,2.39,0,0,1,58.52,41ZM4,87.64c-.38-11.81,3.21-22,11.58-30.3,7.86-7.82,17.21-12.29,28.73-11.7,9.93-.63,18.5,3.15,25.83,9.63,9.17,8.11,13.73,18.48,13.64,30.81A39.88,39.88,0,0,1,44,125.61C21.87,125.67,4.64,107.37,4,87.64Zm192.83,48a88.93,88.93,0,0,1-6.51,18.46,89.93,89.93,0,0,1-17.22,24.32,92.49,92.49,0,0,1-22.38,16.47,82.79,82.79,0,0,1-15.83,6.22,79.79,79.79,0,0,1-18.57,3.18c-2.09.09-4.31.84-6.48.65-5.47-.46-10.93-.95-16.36-1.86-6.91-1.15-13.34-3.59-19.79-6.24a79.2,79.2,0,0,1-14.36-8.06A93.36,93.36,0,0,1,44,175.4a91,91,0,0,1-12.51-17.35A87.42,87.42,0,0,1,24,139.68a78.92,78.92,0,0,1-2.64-12.79c-.1-.75-.69-1.88.23-2.41s1.58.48,2.33.86c3.58,1.84,7.2,3.55,11.29,3.86h0c1.16.24,2.63-.76,3.43.87a47.16,47.16,0,0,0,19.05-2,44.72,44.72,0,0,0,17.75-10.82A42.28,42.28,0,0,0,86.18,99.41h0c.34-2,.68-4,1-6a.92.92,0,0,1,.81-.76,123.86,123.86,0,0,0,0-14.29h0c-1-1.3-2-2.6,0-3.86,8.3-6.54,17.39-8.35,27.57-5,2.82.91,5.31,2.51,8.16,3.3a2.68,2.68,0,0,1,1.79,2.69,44.36,44.36,0,0,0,11,26.34,43.52,43.52,0,0,0,18.74,12.85,40.69,40.69,0,0,0,20.26,2.2,47.58,47.58,0,0,0,19.84-7.58,3.43,3.43,0,0,1,.44-.19c.9-.45,1.34-2.15,2.35-1.65,1.16.56,1.14,2.19,1.15,3.42A105.17,105.17,0,0,1,196.82,135.64ZM210,77.34c-.73,3.16-1.84,6.26-2.27,9.5a2.28,2.28,0,0,1-.64,1,39.47,39.47,0,0,1-23.45,22.25c-2.74,1-5.62,1.35-8.4,2a21.76,21.76,0,0,1-8.17.57c-6.84-1-13.45-2.85-19.24-7A42.7,42.7,0,0,1,133.54,89a37.8,37.8,0,0,1-3-22.82,40.39,40.39,0,0,1,12.87-23.52,44.73,44.73,0,0,1,14.3-8.49h0c.82-1.28,2.12-1,3.33-1a38.92,38.92,0,0,1,19.82.33,37.56,37.56,0,0,1,18.63,11.79,36.66,36.66,0,0,1,4.78,6.12,30.65,30.65,0,0,1,5.25,12.32C210.25,68.1,211,72.61,210,77.34Z"/><path class="cls-1" d="M66.28,15.66c-.76,1.44-1.88,2.5-1.79,4.49C66.43,18.29,66.59,17.88,66.28,15.66Z"/><path class="cls-1" d="M88,92.61a.92.92,0,0,0-.81.76c-.33,2-.67,4-1,6h0A11.35,11.35,0,0,0,88,92.61Z"/><path class="cls-1" d="M88,78.32h0c0-1.29,0-2.57,0-3.86C86,75.72,87,77,88,78.32Z"/><path class="cls-1" d="M145.73,32.2a.36.36,0,0,0,.07.1c.47.58,1.77.58,1.29,1.83.75,0,1.39-.32,1.19-1.05-.38-1.35-1.63-.82-2.58-.9h0Z"/><path class="cls-1" d="M38.66,130.07c-.8-1.63-2.27-.63-3.43-.87h0C36.1,130.57,37.44,130.07,38.66,130.07Z"/><path class="cls-1" d="M161,33.15c-1.21,0-2.51-.29-3.33,1h0C158.84,34,160.17,34.46,161,33.15Z"/><path class="cls-1" d="M160.88,129.5c-9.47.39-19-.62-28.45.62-5.14.67-10.35-.07-15.6.82-3.88.66-8,.91-12,1.21-1,.07-2.08,0-3.1.19-5.49.78-11,1.74-16.46,2.36-3.52.39-7.1.73-10.52,1.36-4.86.89-9.78.7-14.62,1.66-1.7.34-2.37.67-2.31,2.4a58.5,58.5,0,0,0,2.27,12.29A45,45,0,0,0,72.69,173.8a22.77,22.77,0,0,1,4.71,4.38h0a54.77,54.77,0,0,0,10,6A37.54,37.54,0,0,0,102,188.54c6.61.42,13.29.83,20-.59A55.61,55.61,0,0,0,138,181.6c4.89-2.78,8.87-6.72,12.65-10.89a49.18,49.18,0,0,0,10.2-18,56.13,56.13,0,0,0,2.56-20.64C163.33,130.23,162.75,129.42,160.88,129.5Zm-19.61,43.06a50.63,50.63,0,0,1-16.78,8.64A41.5,41.5,0,0,1,105,182.78c-11.73-2-19.89-8.61-24.62-19.54a74.86,74.86,0,0,1-2.42-8c-.19-.62-.12-.89.48-1,3.15-.7,6.31-1.33,9.43-2.14,3.42-.88,6.79-1.94,10.18-2.92,5.64-1.62,11.22-3.42,17-4.74,3.52-.8,6.91-2.15,10.49-2.74h0c1-1.57,2.5-.84,3.81-1,5.13-1.12,10.22-2.47,15.4-3.3,3.74-.59,7.43-1.55,11.26-1.62,1.7,0,2.11.53,2.17,2.18C158.72,152.48,152.47,163.67,141.27,172.56Z"/><path class="cls-1" d="M72.69,173.8c.85,2.23,2.7,3.39,4.71,4.38h0A22.77,22.77,0,0,0,72.69,173.8Z"/><path class="cls-1" d="M157.92,75.59a11,11,0,0,0-10.48,11.09c0,7.06,5.17,11.45,11,11.43A11.14,11.14,0,0,0,169.6,87C169.7,80.75,163.87,75.17,157.92,75.59Z"/><path class="cls-1" d="M60.68,108c6.18.16,11.77-4.91,11.16-11,.64-5.86-5-11.24-10.82-11.29-6.66,0-11.19,6.12-11.11,11.22A10.85,10.85,0,0,0,60.68,108Z"/><path class="cls-1" d="M129.31,140.63c-1.31.16-2.86-.57-3.81,1h0C126.85,141.6,128.29,141.92,129.31,140.63Z"/><path class="cls-1" d="M312.49,84.28a10.94,10.94,0,0,1-1.11,5,10,10,0,0,1-3.07,3.61A13.37,13.37,0,0,1,304,95a17.56,17.56,0,0,1-4.92.67h-4.06v11a3.83,3.83,0,0,0,.29,1.57,2,2,0,0,0,1.21,1,7.86,7.86,0,0,0,1.62.33c.78.1,1.49.16,2.14.18v1.81H284.77v-1.81l1.77-.18a6.48,6.48,0,0,0,1.62-.33,2.18,2.18,0,0,0,1.11-1,3.44,3.44,0,0,0,.35-1.64V80.5a4.71,4.71,0,0,0-.26-1.6,1.87,1.87,0,0,0-1.2-1.08,10.34,10.34,0,0,0-1.92-.47c-.64-.09-1.19-.16-1.65-.19V75.35h16.54a13,13,0,0,1,8.21,2.44A7.79,7.79,0,0,1,312.49,84.28Zm-7.76,6.18a6.88,6.88,0,0,0,1.15-2.54,11.23,11.23,0,0,0,.28-2.36,13.19,13.19,0,0,0-.34-3A6.88,6.88,0,0,0,304.63,80a6.05,6.05,0,0,0-2.35-1.87,8.77,8.77,0,0,0-3.62-.66h-3.6v16h2.6a10.1,10.1,0,0,0,4.48-.86A6.57,6.57,0,0,0,304.73,90.46Z"/><path class="cls-1" d="M337.35,89.64a4.26,4.26,0,0,1-.63,2.31,2.17,2.17,0,0,1-2,1,3,3,0,0,1-2.18-.74,2.26,2.26,0,0,1-.76-1.63,5.23,5.23,0,0,1,.09-1c.06-.31.12-.62.17-.92a5.62,5.62,0,0,0-2.81,1,8.25,8.25,0,0,0-2.73,2.75V107a2.73,2.73,0,0,0,.34,1.45,2,2,0,0,0,1.09.84,6.91,6.91,0,0,0,1.65.39q1,.12,1.74.18v1.68H318.08v-1.68l1.21-.11a4.61,4.61,0,0,0,1.09-.2,1.85,1.85,0,0,0,1.06-.8,2.88,2.88,0,0,0,.34-1.49V91.76a3.5,3.5,0,0,0-.37-1.56,3,3,0,0,0-1-1.22,3.59,3.59,0,0,0-1.15-.45,11.8,11.8,0,0,0-1.43-.19V86.66l8.37-.57.36.36V90h.13a11.35,11.35,0,0,1,3.52-3.14,7.39,7.39,0,0,1,3.55-1.07,3.52,3.52,0,0,1,2.62,1A3.9,3.9,0,0,1,337.35,89.64Z"/><path class="cls-1" d="M366.15,98.73a16.4,16.4,0,0,1-.85,5.22,12.37,12.37,0,0,1-2.4,4.35,11.12,11.12,0,0,1-4.09,3,13.19,13.19,0,0,1-5.21,1,11.88,11.88,0,0,1-4.58-.91,11.42,11.42,0,0,1-3.85-2.64,12.61,12.61,0,0,1-2.65-4.18,14.87,14.87,0,0,1-1-5.52A13.69,13.69,0,0,1,345,89.44a12.58,12.58,0,0,1,17.73-.19A13.07,13.07,0,0,1,366.15,98.73Zm-5.29,0a23.3,23.3,0,0,0-.38-4,13,13,0,0,0-1.15-3.62,7.13,7.13,0,0,0-2.15-2.54,5.41,5.41,0,0,0-3.25-1,5.71,5.71,0,0,0-3.36,1,7.1,7.1,0,0,0-2.26,2.65,11.85,11.85,0,0,0-1.16,3.55,24.26,24.26,0,0,0,.07,8.38,13.25,13.25,0,0,0,1.26,3.72,7.18,7.18,0,0,0,2.19,2.56,5.46,5.46,0,0,0,3.26.94,5.71,5.71,0,0,0,5.07-3.09Q360.86,104.22,360.86,98.78Z"/><path class="cls-1" d="M381,110a16.48,16.48,0,0,1-.82,5.27,12.18,12.18,0,0,1-2.17,4.07,10.4,10.4,0,0,1-3.28,2.62,9,9,0,0,1-4,.9,5.48,5.48,0,0,1-3.42-.9,2.67,2.67,0,0,1-1.15-2.13,3.13,3.13,0,0,1,.61-1.93,2.1,2.1,0,0,1,1.79-.83,2.87,2.87,0,0,1,1.4.33,3.76,3.76,0,0,1,1.08.87,8.24,8.24,0,0,1,.83,1.14l.8,1.31c1.29,0,2.22-.78,2.77-2.35a24.66,24.66,0,0,0,.83-7.53V91.94a3.27,3.27,0,0,0-.4-1.57,3.39,3.39,0,0,0-1-1.21,5.85,5.85,0,0,0-2-.56q-1.54-.28-2.34-.36V86.66l10.11-.57.36.36Zm.38-33.9a3.71,3.71,0,0,1-1,2.54,3,3,0,0,1-2.36,1.08,3,3,0,0,1-2.26-1,3.38,3.38,0,0,1-1-2.36,3.51,3.51,0,0,1,1-2.45,3,3,0,0,1,2.26-1,3.17,3.17,0,0,1,2.39,1A3.24,3.24,0,0,1,381.41,76.14Z"/><path class="cls-1" d="M411.58,105.65a12.83,12.83,0,0,1-4.24,4.8,10.66,10.66,0,0,1-6.1,1.78,12.33,12.33,0,0,1-5.32-1.07,10.41,10.41,0,0,1-3.77-2.91A12.28,12.28,0,0,1,390,104a17.92,17.92,0,0,1-.73-5.18A15.23,15.23,0,0,1,390,94a13.72,13.72,0,0,1,2.28-4.25,11.1,11.1,0,0,1,3.61-2.92,10.42,10.42,0,0,1,4.84-1.11,11.6,11.6,0,0,1,4.72.86,8.43,8.43,0,0,1,3.2,2.38,9.38,9.38,0,0,1,1.74,3.37,14.52,14.52,0,0,1,.58,4.21v1.68H394.3a20.15,20.15,0,0,0,.47,4.51,10.82,10.82,0,0,0,1.49,3.55,7.17,7.17,0,0,0,2.61,2.34,7.93,7.93,0,0,0,3.83.86,7.08,7.08,0,0,0,3.92-1.06,10.58,10.58,0,0,0,3.17-3.84Zm-5.64-9.6a20.9,20.9,0,0,0-.24-3,9.54,9.54,0,0,0-.78-2.73,5.25,5.25,0,0,0-1.61-1.91,4.4,4.4,0,0,0-2.63-.73,5.46,5.46,0,0,0-4.45,2.22,10.33,10.33,0,0,0-1.93,6.2Z"/><path class="cls-1" d="M432.13,110.47c-1.11.46-2.15.85-3.14,1.16a11.91,11.91,0,0,1-3.63.48c-2.11,0-3.59-.54-4.45-1.6a7,7,0,0,1-1.29-4.51V89h-4.54V86.5h4.64V78.67h4.65V86.5h7.22V89h-7.17V103c0,1,0,1.94.11,2.64a5,5,0,0,0,.55,1.85,2.59,2.59,0,0,0,1.23,1.12,5.14,5.14,0,0,0,2.19.39c.43,0,1.05,0,1.88-.12a7.8,7.8,0,0,0,1.75-.29Z"/><path class="cls-1" d="M461.28,98.73a16.67,16.67,0,0,1-.84,5.22A12.54,12.54,0,0,1,458,108.3a11,11,0,0,1-4.09,3,13.15,13.15,0,0,1-5.21,1,11.8,11.8,0,0,1-4.57-.91,11.36,11.36,0,0,1-3.86-2.64,12.61,12.61,0,0,1-2.65-4.18,14.87,14.87,0,0,1-1-5.52,13.74,13.74,0,0,1,3.44-9.65,12.58,12.58,0,0,1,17.73-.19A13.07,13.07,0,0,1,461.28,98.73Zm-5.28,0a22.41,22.41,0,0,0-.39-4,13,13,0,0,0-1.15-3.62,7,7,0,0,0-2.15-2.54,5.39,5.39,0,0,0-3.25-1,5.71,5.71,0,0,0-3.36,1,7.1,7.1,0,0,0-2.26,2.65,11.57,11.57,0,0,0-1.15,3.55,23.6,23.6,0,0,0-.34,3.85,24.47,24.47,0,0,0,.4,4.53,12.94,12.94,0,0,0,1.27,3.72,7.26,7.26,0,0,0,2.18,2.56,5.46,5.46,0,0,0,3.26.94,5.71,5.71,0,0,0,5.07-3.09C455.37,105.25,456,102.41,456,98.78Z"/><path class="cls-1" d="M343.41,147.59a15.24,15.24,0,0,0-2.92.56,12.93,12.93,0,0,0-2.88,1.3,11.23,11.23,0,0,0-3.09,2.49,16.53,16.53,0,0,0-2.16,3.64q-1.44,3.21-4,9.36t-5.95,14q-3,7.05-6.43,15.46t-6.62,16.12H300q-6.5-15.93-13.24-32.37t-9.47-22.86a15.69,15.69,0,0,0-2.07-3.5,11.67,11.67,0,0,0-3.18-2.44,13.26,13.26,0,0,0-2.79-1.23,23.12,23.12,0,0,0-3.2-.63v-3.62h35.72v3.53a34.92,34.92,0,0,0-6.8,1.27c-1.19.45-1.79,1-1.79,1.7a3.94,3.94,0,0,0,.16,1.09c.11.39.27.91.49,1.56q1.49,4.08,5.39,13.34t11.56,28.23q4.69-11.55,7.8-19.53T324,161c.77-2,1.42-3.83,1.93-5.55a15,15,0,0,0,.76-3.88c0-1-.71-1.82-2.13-2.48s-4.06-1.16-7.9-1.47v-3.71h26.71Z"/><path class="cls-1" d="M410.76,160.69h-3.53a24.63,24.63,0,0,0-4.65-7.59q-3.3-3.84-6.55-4.53a20.45,20.45,0,0,0-3.88-.4c-1.65,0-3-.07-4.11-.07h-9.56v25.41h6.78a16.77,16.77,0,0,0,4.64-.6,8.84,8.84,0,0,0,3.81-2.32,11.89,11.89,0,0,0,2.16-3.77,22.44,22.44,0,0,0,1.42-4.69h3.53v27.5h-3.53a23.77,23.77,0,0,0-1.42-4.9,13.54,13.54,0,0,0-2.16-4.06,7.84,7.84,0,0,0-3.62-2.3,16.83,16.83,0,0,0-4.83-.63h-6.78v19a19.65,19.65,0,0,0,.44,4.71,4.65,4.65,0,0,0,1.65,2.67,6.6,6.6,0,0,0,3.18,1.16,41.51,41.51,0,0,0,5.5.28c1.09,0,2.39,0,3.9,0a36.68,36.68,0,0,0,4-.28,25.54,25.54,0,0,0,3.64-.7,5.41,5.41,0,0,0,2.54-1.35,38.3,38.3,0,0,0,5-6.94,50.29,50.29,0,0,0,3.67-7h3.39l-1.25,20.53H352.32v-3.62c.87-.07,2.05-.19,3.53-.38a13.74,13.74,0,0,0,3.16-.65,4.46,4.46,0,0,0,2.37-1.88,6.17,6.17,0,0,0,.61-2.9v-46.5a6.53,6.53,0,0,0-.52-2.76,4.65,4.65,0,0,0-2.46-2,15.94,15.94,0,0,0-3.39-1c-1.45-.3-2.55-.51-3.3-.6v-3.62h58.44Z"/><path class="cls-1" d="M492.79,209.79H467.5q-6.54-10-10.89-16t-10.79-13.75h-2.54v20a6,6,0,0,0,.62,2.83,4.82,4.82,0,0,0,2.4,2,16.76,16.76,0,0,0,2.76.76,32.29,32.29,0,0,0,3.23.54v3.62H417.13v-3.62l3.55-.4a13.34,13.34,0,0,0,3.13-.63,4.46,4.46,0,0,0,2.37-1.88,6.05,6.05,0,0,0,.61-2.9v-46.5a6.67,6.67,0,0,0-.51-2.78,4.48,4.48,0,0,0-2.47-2,19.82,19.82,0,0,0-3.5-1c-1.35-.27-2.41-.48-3.18-.6v-3.62h37q12.4,0,18.83,3.88t6.44,11.72q0,6.93-4,11.13t-12.1,6.57q3.15,4.09,7.36,9.48t8.75,11q1.44,1.8,3.93,4.43a11.46,11.46,0,0,0,4.39,3.23,18.55,18.55,0,0,0,2.72.56c1.09.15,1.88.25,2.34.28Zm-31.63-49c0-4.39-1.23-7.61-3.69-9.63s-6-3.05-10.52-3.05h-3.67v27.6h3.53q6.82,0,10.59-3.58C459.91,169.73,461.16,166,461.16,160.78Z"/><path class="cls-1" d="M571.36,209.79H544l-2.88-3.28c-1.17-1.35-2.18-2.55-3-3.6a32.8,32.8,0,0,1-9.83,6.53,27.57,27.57,0,0,1-10.43,2q-8.68,0-14.23-4.7a15.24,15.24,0,0,1-5.55-12.22,18.75,18.75,0,0,1,1-6.46,19.07,19.07,0,0,1,3.23-5.4,23.47,23.47,0,0,1,5.3-4.67,54.11,54.11,0,0,1,7.1-3.88,44.6,44.6,0,0,1-5.82-9,18.62,18.62,0,0,1-1.65-7.62,13.42,13.42,0,0,1,5.57-11,21,21,0,0,1,13.33-4.34q7.25,0,11.75,3.43a10.92,10.92,0,0,1,4.51,9.12,15,15,0,0,1-2.7,8.8q-2.69,3.89-9,7.6,5.06,6.51,7.83,9.79t7.36,8.62a43.81,43.81,0,0,0,4.39-8,17.08,17.08,0,0,0,1.46-6.09c0-.93-.69-1.69-2.07-2.26a32.45,32.45,0,0,0-5.82-1.61V168h26v3.53a30.56,30.56,0,0,0-6.25,1,9.88,9.88,0,0,0-4,2.65,15.29,15.29,0,0,0-2.07,2.95c-.82,1.42-1.6,2.77-2.34,4.08q-1.35,2.37-2.88,5a52,52,0,0,1-3.72,5.45,84.12,84.12,0,0,0,7,7.51,24.66,24.66,0,0,0,4.53,3.41,18.58,18.58,0,0,0,5.06,1.7,42.93,42.93,0,0,0,6.09.81Zm-35.68-9.9L526.6,189q-5.18-6.22-9.64-11.85a14.23,14.23,0,0,0-3.55,5.65,20.14,20.14,0,0,0-1.09,6.49,13.44,13.44,0,0,0,14,14,13.18,13.18,0,0,0,9.38-3.35Zm-.32-44.55a9.67,9.67,0,0,0-2-6.43,6.38,6.38,0,0,0-5.13-2.34,6.46,6.46,0,0,0-4.88,1.93,6.93,6.93,0,0,0-1.86,5,13.92,13.92,0,0,0,1.72,6.1,62.74,62.74,0,0,0,5.3,8.28,15.64,15.64,0,0,0,5.18-5.73A15,15,0,0,0,535.36,155.34Z"/><path class="cls-1" d="M647,188.65l-1.3,21.14H585v-3.62c1.08-.1,2.35-.24,3.81-.45a14.76,14.76,0,0,0,2.88-.58,4.26,4.26,0,0,0,2.32-1.81,6,6,0,0,0,.65-3v-46.5a6.54,6.54,0,0,0-.51-2.76,4.65,4.65,0,0,0-2.46-2,15.41,15.41,0,0,0-3.46-1c-1.35-.26-2.43-.46-3.23-.58v-3.62h36.18v3.62c-1,.09-2.16.22-3.5.39a21.3,21.3,0,0,0-3.51.73,3.8,3.8,0,0,0-2.42,1.88,6.74,6.74,0,0,0-.6,2.9v43.34a21.87,21.87,0,0,0,.42,4.83,4.17,4.17,0,0,0,1.63,2.6,7,7,0,0,0,3.36,1.14,54.14,54.14,0,0,0,6,.25,56.57,56.57,0,0,0,7.22-.44,8.68,8.68,0,0,0,5-1.93,32.66,32.66,0,0,0,4.86-6.66,69.3,69.3,0,0,0,4-7.88Z"/><path class="cls-1" d="M702.92,160.69h-3.53a24.78,24.78,0,0,0-4.64-7.59c-2.2-2.56-4.39-4.07-6.55-4.53a20.55,20.55,0,0,0-3.88-.4c-1.66,0-3-.07-4.11-.07h-9.57v25.41h6.78a16.9,16.9,0,0,0,4.65-.6,8.81,8.81,0,0,0,3.8-2.32,11.52,11.52,0,0,0,2.16-3.77,22.44,22.44,0,0,0,1.42-4.69H693v27.5h-3.53a23.77,23.77,0,0,0-1.42-4.9,13.54,13.54,0,0,0-2.16-4.06,7.84,7.84,0,0,0-3.62-2.3,16.74,16.74,0,0,0-4.83-.63h-6.78v19a19.65,19.65,0,0,0,.44,4.71,4.65,4.65,0,0,0,1.65,2.67,6.6,6.6,0,0,0,3.18,1.16,41.68,41.68,0,0,0,5.51.28c1.08,0,2.38,0,3.9,0a36.48,36.48,0,0,0,4-.28,25.69,25.69,0,0,0,3.65-.7,5.37,5.37,0,0,0,2.53-1.35,37.78,37.78,0,0,0,5-6.94,51.44,51.44,0,0,0,3.67-7h3.39l-1.26,20.53H644.49v-3.62c.86-.07,2-.19,3.53-.38a13.86,13.86,0,0,0,3.16-.65,4.47,4.47,0,0,0,2.36-1.88,6.05,6.05,0,0,0,.61-2.9v-46.5a6.54,6.54,0,0,0-.51-2.76,4.65,4.65,0,0,0-2.46-2,16.25,16.25,0,0,0-3.4-1c-1.45-.3-2.55-.51-3.29-.6v-3.62h58.43Z"/><path class="cls-1" d="M785,209.79h-25.3q-6.54-10-10.88-16T738,180.06h-2.55v20a5.83,5.83,0,0,0,.63,2.83,4.79,4.79,0,0,0,2.39,2,17.05,17.05,0,0,0,2.76.76c1.26.27,2.33.44,3.23.54v3.62H709.29v-3.62l3.55-.4a13.46,13.46,0,0,0,3.14-.63,4.54,4.54,0,0,0,2.37-1.88,6.18,6.18,0,0,0,.6-2.9v-46.5a6.67,6.67,0,0,0-.51-2.78,4.41,4.41,0,0,0-2.46-2,19.69,19.69,0,0,0-3.51-1c-1.35-.27-2.41-.48-3.18-.6v-3.62h37q12.4,0,18.84,3.88t6.43,11.72q0,6.93-4,11.13t-12.1,6.57q3.16,4.09,7.36,9.48t8.76,11q1.44,1.8,3.92,4.43a11.46,11.46,0,0,0,4.39,3.23,18.55,18.55,0,0,0,2.72.56c1.1.15,1.88.25,2.35.28Zm-31.64-49c0-4.39-1.23-7.61-3.69-9.63s-6-3.05-10.52-3.05h-3.67v27.6H739q6.82,0,10.59-3.58C752.07,169.73,753.32,166,753.32,160.78Z"/></g></g></svg>